# xmcd
#
# Track frame offsets:
#	182
#	11340
#	24462
#	40040
#	57247
#	72617
#	86115
#	102565
#	114395
#	127535
#	140760
#	156912
#	171435
#	189142
#	204980
#	217515
#	235847
#
# Disc length: 3315
#
# Revision: 2
# Processed by: cddbd v1.5.1PL0 Copyright (c) Steve Scherf et al.
# Submitted via: dBpowerAMP V4.0
# Normalized: r0:TDELIM( - );r1:TSWAP
#
DISCID=de0cf111
DTITLE=Various Artist - Beautiful Country vol. 2
DYEAR=1994
DGENRE=Country
TTITLE0=Marty Robbins - Love Is Blues
TTITLE1=George Jones - The Bird
TTITLE2=Tammy Winette - Talkin' To Myself Again
TTITLE3=Lacy. J. Dalton - Adios And Run
TTITLE4=Mickey Gilley - Your Memory Ain't It Used To Be
TTITLE5=Tammy Wynette/Emmylou Harris - Beneath A Painted Sky
TTITLE6=Merle Haggard/George Jones - C. C. Waterback
TTITLE7=Dolly Parton/Tammy Wynette/Loretta A. Lynn - Sittin' On The Front Porch Swing
TTITLE8=Larry Boone - Keeper Of My Heart
TTITLE9=Patty Loveless - All I Need
TTITLE10=Bobbie Cryner - Too Many Tears Too Late
TTITLE11=Collin Raye - All I Can Be
TTITLE12=Doug Stone - She Used To Love Me A Lot
TTITLE13=Stacy Dean Campbell - One Little Teardrop
TTITLE14=Joe Diffie - Back To Back Heartaches
TTITLE15=Marcy Chapin Carpenter - He Thinks He'll Keep Her
TTITLE16=Ricky Van Shelton - Pretty Woman
EXTD=
EXTT0=
EXTT1=
EXTT2=
EXTT3=
EXTT4=
EXTT5=
EXTT6=
EXTT7=
EXTT8=
EXTT9=
EXTT10=
EXTT11=
EXTT12=
EXTT13=
EXTT14=
EXTT15=
EXTT16=
PLAYORDER=
